<!DOCTYPE svg PUBLIC "-//W3C//DTD SVG 20010904//EN" "http://www.w3.org/TR/2001/REC-SVG-20010904/DTD/svg10.dtd">
<svg version="1.0" xmlns="http://www.w3.org/2000/svg" width="1000px" height="742px" viewBox="0 0 10000 7420" preserveAspectRatio="xMidYMid meet">
<g id="layer101" fill="#ffffff" stroke="none">
 <path d="M3600 7150 c-86 -21 -178 -60 -212 -89 -13 -11 -42 -35 -65 -53 -67 -54 -183 -211 -183 -249 0 -6 -11 -34 -25 -62 -28 -59 -47 -138 -70 -282 -22 -139 -31 -545 -16 -726 12 -143 55 -389 70 -399 4 -3 20 -40 36 -83 49 -135 146 -259 267 -340 171 -116 467 -137 687 -50 131 52 269 189 333 332 17 36 39 86 50 111 28 61 63 238 78 392 19 194 8 639 -19 792 -23 128 -42 203 -65 251 -8 17 -28 61 -45 98 -35 79 -131 200 -190 241 -23 16 -41 32 -41 36 0 13 -144 68 -222 84 -105 22 -272 20 -368 -4z m303 -401 c26 -17 56 -44 67 -59 25 -36 57 -134 66 -203 4 -29 10 -57 15 -63 5 -6 14 -110 20 -231 11 -230 -1 -654 -20 -691 -5 -9 -15 -44 -21 -77 -21 -109 -50 -173 -93 -211 -22 -18 -46 -34 -53 -34 -7 0 -14 -6 -16 -12 -6 -17 -146 -18 -156 -2 -4 6 -21 19 -39 28 -45 23 -78 70 -101 147 -23 73 -42 196 -42 265 0 24 -4 44 -10 44 -6 0 -10 115 -10 324 0 206 4 327 10 331 6 3 10 27 10 53 1 115 52 301 95 344 62 65 89 77 166 78 57 0 72 -4 112 -31z"/>
 <path d="M8585 7151 c-163 -42 -277 -115 -372 -240 -24 -31 -47 -61 -52 -67 -23 -29 -91 -205 -91 -238 0 -8 -4 -16 -9 -18 -11 -4 -38 -160 -51 -303 -13 -142 -13 -493 0 -626 12 -117 37 -276 47 -292 3 -5 22 -58 43 -117 53 -157 143 -286 247 -356 32 -22 60 -42 63 -46 3 -4 24 -15 45 -24 189 -79 446 -80 628 -2 29 12 57 27 63 33 7 5 39 30 73 54 33 24 61 47 61 51 0 3 19 29 43 56 23 28 56 80 71 115 16 35 34 67 40 71 6 4 7 8 2 8 -5 0 -3 7 4 15 17 21 57 178 77 309 25 159 26 713 1 866 -21 128 -65 302 -79 311 -6 3 -10 10 -10 15 1 5 -17 45 -39 89 -63 124 -190 249 -300 296 -141 59 -360 77 -505 40z m267 -380 c13 -5 44 -29 69 -53 35 -33 49 -57 63 -108 11 -36 23 -70 27 -75 55 -75 55 -1071 0 -1140 -5 -5 -17 -36 -27 -68 -19 -63 -71 -132 -107 -143 -12 -4 -25 -11 -28 -16 -3 -5 -28 -11 -56 -15 -43 -5 -60 -1 -108 23 -96 48 -129 107 -162 283 -15 82 -18 155 -18 511 0 446 7 524 56 653 22 57 85 128 131 147 30 12 130 12 160 1z"/>
 <path d="M470 7131 c0 -68 71 -329 94 -343 6 -4 7 -8 1 -8 -7 0 -7 -3 0 -8 6 -4 26 -36 44 -72 66 -123 187 -264 423 -492 261 -253 408 -399 451 -451 83 -101 127 -248 108 -363 -18 -115 -62 -178 -143 -206 -18 -6 -36 -16 -40 -22 -10 -15 -196 -15 -206 0 -4 6 -18 15 -32 19 -93 28 -151 124 -166 271 -6 56 -9 64 -28 64 -63 1 -306 -25 -306 -32 0 -4 -20 -8 -44 -8 -24 0 -58 -3 -76 -6 -32 -7 -32 -7 -26 -53 11 -80 27 -145 47 -188 10 -24 19 -48 19 -55 0 -19 59 -116 105 -175 26 -33 73 -71 135 -111 149 -94 272 -125 490 -125 207 0 337 33 465 119 44 30 104 81 133 113 52 59 112 159 112 187 0 8 5 14 11 14 6 0 9 7 5 15 -3 8 -2 15 3 15 5 0 14 42 21 94 10 74 10 116 0 198 -6 56 -15 104 -20 106 -4 2 -6 12 -3 22 3 11 0 20 -6 20 -6 0 -11 6 -11 13 0 24 -51 140 -81 184 -16 24 -43 64 -61 91 -61 91 -162 200 -319 346 -223 206 -296 278 -340 334 l-49 62 450 0 450 0 0 220 0 220 -805 0 c-449 0 -805 -4 -805 -9z"/>
 <path d="M5455 7088 c26 -205 130 -421 287 -602 42 -47 247 -252 540 -541 79 -78 158 -158 176 -178 57 -66 112 -194 112 -263 0 -16 5 -35 11 -41 8 -8 8 -13 0 -17 -6 -4 -11 -23 -11 -41 0 -42 -26 -121 -51 -157 -11 -14 -49 -41 -86 -60 -60 -30 -74 -33 -155 -33 -51 0 -92 5 -96 11 -4 5 -23 16 -41 24 -49 20 -99 66 -118 109 -19 45 -42 145 -43 189 0 26 -4 32 -22 32 -58 0 -304 -24 -308 -30 -3 -4 -36 -10 -73 -12 -37 -3 -70 -8 -73 -11 -7 -7 16 -161 25 -167 4 -3 15 -34 26 -70 46 -160 147 -286 283 -353 23 -12 42 -24 42 -29 0 -9 138 -53 220 -69 36 -7 128 -12 205 -12 271 1 439 66 584 224 65 71 133 194 152 274 17 74 15 267 -5 349 -34 142 -130 315 -248 450 -52 58 -164 170 -245 246 -213 196 -316 298 -335 329 -12 20 -29 41 -38 48 -12 10 80 12 438 13 l452 0 0 220 0 220 -806 0 -806 0 7 -52z"/>
 <path d="M1240 4643 c-111 -11 -317 -76 -345 -108 -5 -7 -28 -23 -50 -35 -87 -51 -238 -218 -259 -287 -4 -13 -12 -23 -17 -23 -6 0 -7 -4 -4 -10 3 -5 2 -10 -3 -10 -10 0 -47 -104 -68 -190 -28 -116 -39 -311 -26 -463 7 -78 17 -160 22 -182 30 -113 64 -215 72 -215 5 0 6 -4 3 -10 -3 -5 -2 -10 4 -10 5 0 13 -10 17 -22 31 -100 217 -282 361 -356 51 -26 204 -72 239 -72 13 0 24 -4 24 -10 0 -12 332 -14 345 -2 6 5 37 15 70 21 77 17 210 68 232 89 9 9 36 31 60 48 69 49 150 146 188 225 19 40 35 79 35 86 0 7 4 13 9 13 8 0 36 90 29 94 -2 1 -64 15 -138 31 -74 16 -137 31 -140 35 -8 11 -123 31 -130 23 -4 -5 -12 -27 -19 -50 -6 -23 -18 -49 -26 -57 -8 -8 -15 -20 -15 -26 0 -25 -107 -124 -160 -148 -106 -48 -303 -42 -410 13 -53 28 -151 128 -178 182 -83 167 -95 572 -24 785 40 120 152 235 263 269 91 28 236 26 311 -5 78 -32 145 -92 180 -161 12 -22 24 -42 28 -45 10 -6 50 -119 50 -140 0 -33 14 -40 55 -28 22 7 42 15 45 19 3 3 74 26 158 50 l154 44 -6 38 c-8 50 -94 240 -127 281 -68 86 -114 133 -159 166 -30 22 -60 44 -66 49 -90 74 -380 125 -584 104z"/>
 <path d="M4645 4644 c-187 -29 -288 -64 -383 -136 -112 -83 -198 -204 -242 -341 -14 -44 -40 -190 -35 -195 5 -5 399 -41 403 -37 2 2 9 29 17 61 21 90 47 140 104 199 66 69 132 95 257 102 213 13 359 -55 398 -187 36 -123 -18 -208 -162 -253 -42 -14 -104 -31 -137 -38 -33 -7 -62 -16 -65 -19 -3 -4 -39 -14 -80 -24 -101 -22 -264 -68 -270 -76 -3 -3 -43 -24 -90 -46 -105 -50 -201 -140 -250 -234 -54 -106 -64 -302 -21 -423 58 -165 226 -297 426 -337 33 -6 68 -16 77 -21 22 -11 362 -12 386 0 9 4 57 18 106 30 138 33 199 65 291 156 73 73 117 152 137 248 7 31 16 57 20 57 4 0 8 25 8 55 l0 55 -97 0 c-54 0 -148 3 -209 6 l-111 7 -7 -34 c-3 -19 -7 -40 -8 -46 -1 -7 -4 -13 -8 -13 -3 0 -11 -15 -18 -32 -20 -55 -68 -105 -119 -123 -62 -22 -251 -31 -324 -16 -116 25 -178 76 -186 155 -10 97 89 165 312 216 28 7 59 16 70 21 11 4 76 22 145 39 135 33 222 59 230 69 3 3 38 22 79 41 70 33 211 151 211 176 0 6 9 20 20 32 60 64 89 306 56 456 -10 42 -24 82 -31 90 -8 7 -11 16 -8 20 4 3 1 6 -5 6 -7 0 -12 5 -12 11 0 23 -89 135 -130 164 -23 17 -51 38 -62 49 -30 28 -132 66 -233 88 -88 18 -378 33 -450 22z"/>
 <path d="M6246 4639 c-117 -16 -298 -72 -315 -97 -4 -4 -28 -23 -54 -42 -57 -41 -145 -146 -179 -216 -13 -27 -33 -78 -43 -114 -10 -36 -22 -70 -26 -76 -5 -6 -11 -36 -15 -66 l-7 -57 34 -5 c28 -4 225 -21 343 -29 28 -2 30 0 46 66 9 38 22 72 27 75 6 4 17 23 26 43 24 57 94 123 162 149 53 21 76 24 195 24 195 -1 259 -29 338 -149 21 -32 26 -53 27 -100 0 -62 -10 -80 -77 -145 -22 -20 -119 -54 -218 -76 -41 -9 -77 -19 -80 -23 -3 -3 -81 -25 -175 -49 -93 -23 -171 -46 -175 -50 -3 -4 -43 -26 -90 -48 -58 -28 -105 -60 -147 -101 -35 -33 -63 -63 -63 -67 0 -4 -13 -26 -29 -49 -49 -73 -66 -139 -65 -262 1 -83 6 -123 21 -165 19 -52 107 -190 121 -190 4 0 27 -19 52 -42 55 -51 122 -82 239 -112 50 -12 94 -26 98 -29 10 -11 371 -8 391 2 9 5 44 15 77 21 174 35 318 129 393 259 14 25 29 48 33 51 12 8 47 147 54 213 l6 57 -98 0 c-54 0 -148 3 -209 6 l-111 7 -13 -54 c-17 -71 -30 -97 -77 -145 -50 -51 -94 -65 -233 -71 -185 -8 -287 25 -328 109 -33 66 -23 110 36 165 46 42 128 75 262 105 30 7 57 15 60 19 3 3 41 14 85 24 105 23 289 75 295 84 3 4 40 24 83 44 88 41 192 138 232 216 29 59 55 146 55 188 0 18 5 33 10 33 6 0 10 28 10 64 0 36 -4 68 -10 71 -5 3 -10 19 -10 35 0 35 -42 160 -66 198 -48 75 -97 130 -143 161 -28 19 -51 38 -51 42 0 11 -166 69 -245 85 -88 18 -368 26 -459 13z"/>
 <path d="M2110 4607 c0 -20 32 -111 41 -117 5 -4 27 -60 50 -125 23 -66 44 -122 48 -125 7 -6 19 -36 68 -175 19 -55 38 -102 42 -105 4 -3 27 -59 50 -125 24 -66 51 -136 61 -155 10 -19 35 -84 56 -145 20 -60 41 -113 46 -116 5 -3 12 -19 17 -35 19 -61 82 -228 90 -238 8 -10 36 -86 78 -206 8 -25 19 -47 23 -50 4 -3 25 -54 46 -115 l39 -110 214 -3 c206 -2 251 3 236 28 -3 5 -2 10 3 12 4 1 21 39 36 83 16 44 42 109 59 145 27 58 81 197 94 243 3 9 10 17 15 17 6 0 8 6 5 14 -3 8 -3 16 2 18 4 2 20 39 35 83 16 44 42 109 59 145 16 36 42 99 57 140 15 41 34 89 41 105 7 17 12 33 11 38 -1 4 2 7 6 7 4 0 14 17 21 38 31 91 74 197 80 202 4 3 10 14 13 25 7 24 61 168 79 210 7 17 12 33 11 38 -1 4 2 7 6 7 4 0 14 17 21 38 26 76 70 188 90 228 11 22 23 52 26 67 l7 27 -225 0 c-205 0 -226 -2 -233 -17 -4 -10 -6 -21 -6 -25 1 -5 -3 -8 -8 -8 -6 0 -10 -5 -10 -11 0 -17 -82 -243 -90 -249 -4 -3 -16 -32 -27 -65 l-20 -60 -386 -3 c-365 -2 -387 -1 -387 16 0 9 -8 33 -18 52 -11 19 -36 87 -57 150 -21 63 -41 117 -44 120 -3 3 -6 10 -7 15 0 6 -8 27 -17 48 l-17 37 -215 0 c-172 0 -215 -3 -215 -13z m1219 -804 c-6 -15 -14 -32 -19 -38 -8 -9 -76 -200 -97 -270 -4 -11 -9 -22 -13 -25 -4 -3 -23 -54 -44 -115 -38 -114 -67 -185 -76 -185 -3 0 -19 39 -34 88 -16 48 -38 110 -51 137 -12 28 -39 102 -60 165 -21 63 -41 117 -44 120 -6 5 -31 76 -46 128 l-6 22 250 0 251 0 -11 -27z"/>
 <path d="M7330 3640 l0 -980 205 0 205 0 0 980 0 980 -205 0 -205 0 0 -980z"/>
 <path d="M7910 3640 l0 -980 199 0 198 0 27 40 c14 22 26 44 26 50 0 6 7 13 15 16 8 4 12 10 9 15 -3 5 -1 9 3 9 5 0 17 17 28 38 11 20 33 57 50 82 44 66 95 151 95 160 0 4 16 27 35 51 19 24 35 48 35 53 0 12 62 110 72 114 5 2 6 8 2 13 -3 5 -1 9 4 9 5 0 21 24 37 53 15 28 38 65 49 82 31 45 86 136 86 144 0 4 8 16 19 27 10 11 31 42 46 70 15 27 37 63 49 79 23 31 76 118 88 145 4 8 7 -270 7 -617 l1 -633 190 0 190 0 0 980 0 980 -203 0 -202 0 -25 -45 c-14 -25 -29 -45 -34 -45 -5 0 -7 -3 -3 -6 3 -3 -2 -15 -12 -25 -10 -11 -30 -44 -45 -73 -15 -30 -36 -62 -47 -72 -10 -9 -19 -20 -19 -24 0 -11 -78 -142 -88 -149 -5 -3 -24 -32 -41 -65 -18 -32 -54 -91 -79 -131 -26 -40 -55 -85 -64 -101 -10 -16 -38 -62 -63 -102 -25 -41 -45 -78 -45 -82 0 -5 -6 -13 -14 -17 -7 -4 -28 -35 -47 -68 -18 -33 -51 -88 -74 -121 -22 -34 -45 -70 -52 -80 -9 -15 -12 116 -12 594 l-1 612 -195 0 -195 0 0 -980z"/>
 <path d="M5393 2553 c-24 -2 -43 -8 -43 -12 0 -5 -19 -11 -42 -15 -187 -30 -414 -169 -494 -303 -14 -24 -29 -43 -33 -43 -8 0 -63 -124 -82 -185 -6 -22 -15 -42 -19 -45 -7 -6 -26 -89 -36 -161 l-6 -46 34 -6 c18 -3 104 -11 191 -18 86 -7 157 -16 157 -21 0 -4 24 -8 54 -8 l54 0 16 68 c37 161 128 287 240 330 32 12 64 22 71 22 7 0 15 6 18 13 5 15 334 18 345 2 4 -6 34 -19 67 -29 49 -15 70 -29 122 -84 71 -74 87 -114 81 -204 -7 -95 -70 -163 -183 -198 -22 -7 -42 -16 -45 -20 -4 -6 -236 -64 -340 -85 -19 -4 -39 -11 -45 -15 -5 -4 -32 -13 -59 -19 -281 -69 -503 -202 -591 -356 -16 -27 -32 -52 -36 -55 -4 -3 -18 -34 -30 -70 -20 -56 -24 -84 -24 -205 0 -121 3 -149 23 -207 13 -38 27 -68 31 -68 4 0 18 -22 30 -48 29 -61 109 -145 186 -194 33 -20 65 -42 72 -48 18 -15 158 -60 237 -76 103 -21 362 -29 481 -15 123 14 253 45 320 77 74 34 181 109 218 151 18 21 39 44 47 53 22 22 80 127 80 144 0 8 7 21 15 30 18 18 45 140 45 205 l0 48 -46 7 c-26 3 -98 6 -160 6 -69 0 -114 4 -114 10 0 6 -36 10 -89 10 l-89 0 -7 -42 c-14 -80 -44 -144 -94 -196 -39 -41 -60 -54 -107 -67 -33 -9 -68 -21 -79 -27 -24 -13 -265 -14 -274 -1 -3 6 -24 13 -46 17 -49 9 -123 41 -148 64 -23 20 -67 109 -67 134 0 10 5 18 11 18 6 0 9 9 6 20 -3 11 -2 20 3 20 4 0 15 15 23 33 17 35 77 74 152 97 22 7 42 16 45 20 6 10 165 53 300 81 58 12 107 25 110 28 3 3 64 23 136 44 225 64 379 160 498 311 29 37 86 183 86 221 0 12 5 26 11 32 6 6 10 30 7 52 -2 23 0 41 4 41 5 0 8 23 8 50 0 28 -4 50 -8 50 -4 0 -6 16 -4 35 2 19 0 41 -6 48 -5 6 -12 29 -16 50 -8 42 -61 177 -73 186 -5 3 -20 24 -35 46 -42 64 -98 119 -163 160 -33 21 -62 41 -65 45 -10 14 -137 59 -210 75 -41 9 -84 21 -95 28 -20 11 -439 20 -532 10z"/>
 <path d="M540 1340 l0 -1180 820 0 820 0 0 210 0 210 -575 0 -575 0 0 265 0 265 495 0 495 0 0 210 0 210 -495 0 -495 0 0 495 0 495 -245 0 -245 0 0 -1180z"/>
 <path d="M2550 1340 l0 -1180 890 0 890 0 0 210 0 210 -640 0 -640 0 0 250 0 250 595 0 595 0 0 200 0 200 -595 0 -595 0 0 310 0 310 665 0 665 0 0 210 0 210 -915 0 -915 0 0 -1180z"/>
 <path d="M7500 1550 l0 -970 -345 0 -345 0 0 -210 0 -210 950 0 950 0 0 210 0 210 -350 0 -350 0 0 970 0 970 -255 0 -255 0 0 -970z"/>
 <path d="M8980 1340 l0 -1180 245 0 245 0 0 1180 0 1180 -245 0 -245 0 0 -1180z"/>
 </g>

</svg>